<svg width="94" height="38" viewBox="0 0 94 38" fill="none" xmlns="http://www.w3.org/2000/svg">
<path d="M77.5853 30.8825C76.5022 29.7994 87.0852 12.5 92.0852 18.5C97.0852 24.5 78.6684 31.9656 77.5853 30.8825Z" fill="url(#paint0_linear_3_18)"/>
<path d="M75.5536 30.8825C75.7083 29.1805 59.5852 17.5 58.0852 25.5C56.5852 33.5 75.3988 32.5845 75.5536 30.8825Z" fill="url(#paint1_linear_3_18)"/>
<path d="M65.4963 7.36406C70.2928 8.13775 74.0836 12.0059 74.161 12.7795C74.2383 13.5531 63.7943 15.1004 61.4734 12.47C59.1525 9.83969 60.6997 6.59038 65.4963 7.36406Z" fill="url(#paint2_linear_3_18)"/>
<path d="M80.3501 2.10335C83.4446 -1.30055 89.9431 2.10334 86.075 5.97152C82.2068 9.8397 75.9662 12.9343 75.5535 12.47C75.1409 12.0058 77.2555 5.50724 80.3501 2.10335Z" fill="url(#paint3_linear_3_18)"/>
<path d="M75.085 12.5C76.9417 21.6289 76.7913 29.3353 76.7913 38M77.5853 30.8825C76.5022 29.7994 87.0852 12.5 92.0852 18.5C97.0852 24.5 78.6684 31.9656 77.5853 30.8825ZM75.5536 30.8825C75.7083 29.1805 59.5852 17.5 58.0852 25.5C56.5852 33.5 75.3988 32.5845 75.5536 30.8825ZM74.161 12.7795C74.0836 12.0059 70.2928 8.13775 65.4963 7.36406C60.6997 6.59038 59.1525 9.83969 61.4734 12.47C63.7943 15.1004 74.2383 13.5531 74.161 12.7795ZM86.075 5.97152C89.9431 2.10334 83.4446 -1.30055 80.3501 2.10335C77.2555 5.50724 75.1409 12.0058 75.5535 12.47C75.9662 12.9343 82.2068 9.8397 86.075 5.97152Z" stroke="black" stroke-width="0.5"/>
<path d="M1.00006 9.99994L10.4386 13.2849C10.4386 13.2849 18.3434 13.3663 27.5679 13.5291L28.267 10.7038L33.7437 13.6477C35.7912 13.6905 37.833 13.7372 39.803 13.7876C48.6215 14.0133 56.0001 14.315 56.0001 14.6927C56.0001 15.1259 51.3301 19.922 46.678 22.2011C44.2359 23.3975 41.7731 24.0873 39.803 24.4842C37.3961 24.9691 35.7246 25.0167 35.7246 25.0167L28.267 30.9999V25.0167C28.267 25.0167 23.8839 25.0167 17.4301 22.2011C10.9764 19.3854 10.4386 13.2849 10.4386 13.2849L1.46616 20.4413L1.00006 9.99994Z" fill="url(#paint4_linear_3_18)"/>
<path d="M10.4386 13.2849L1.00006 9.99994L1.46616 20.4413L10.4386 13.2849ZM10.4386 13.2849C10.4386 13.2849 10.9764 19.3854 17.4301 22.2011C23.8839 25.0167 28.267 25.0167 28.267 25.0167V30.9999L35.7246 25.0167C35.7246 25.0167 37.3961 24.9691 39.803 24.4842M10.4386 13.2849C10.4386 13.2849 18.3434 13.3663 27.5679 13.5291M27.5679 13.5291L28.267 10.7038L33.7437 13.6477M27.5679 13.5291C29.5863 13.5647 31.6679 13.6043 33.7437 13.6477M33.7437 13.6477C35.7912 13.6905 37.833 13.7372 39.803 13.7876M39.803 13.7876C48.6215 14.0133 56.0001 14.315 56.0001 14.6927C56.0001 15.1259 51.3301 19.922 46.678 22.2011C44.2359 23.3975 41.7731 24.0873 39.803 24.4842M39.803 13.7876V24.4842M44.5806 15.6312C44.5806 15.6312 43.4153 17.5083 44.5806 18.5642C45.7458 19.6201 47.3772 19.7374 48.4259 18.5642C49.4746 17.391 48.4259 15.6312 48.4259 15.6312" stroke="black" stroke-width="0.5"/>
<defs>
<linearGradient id="paint0_linear_3_18" x1="76" y1="1" x2="77.0853" y2="38" gradientUnits="userSpaceOnUse">
<stop stop-color="#A5CE84"/>
<stop offset="1" stop-color="#4CC68D"/>
</linearGradient>
<linearGradient id="paint1_linear_3_18" x1="76" y1="1" x2="77.0853" y2="38" gradientUnits="userSpaceOnUse">
<stop stop-color="#A5CE84"/>
<stop offset="1" stop-color="#4CC68D"/>
</linearGradient>
<linearGradient id="paint2_linear_3_18" x1="76" y1="1" x2="77.0853" y2="38" gradientUnits="userSpaceOnUse">
<stop stop-color="#A5CE84"/>
<stop offset="1" stop-color="#4CC68D"/>
</linearGradient>
<linearGradient id="paint3_linear_3_18" x1="76" y1="1" x2="77.0853" y2="38" gradientUnits="userSpaceOnUse">
<stop stop-color="#A5CE84"/>
<stop offset="1" stop-color="#4CC68D"/>
</linearGradient>
<linearGradient id="paint4_linear_3_18" x1="25.5" y1="16.5" x2="40" y2="16.0013" gradientUnits="userSpaceOnUse">
<stop stop-color="#FF6B00"/>
<stop offset="1" stop-color="#FFC100"/>
</linearGradient>
</defs>
</svg>
