<svg width="137" height="38" viewBox="0 0 137 38" fill="none" xmlns="http://www.w3.org/2000/svg">
<path d="M77.5853 30.8825C76.5022 29.7994 87.0852 12.5 92.0852 18.5C97.0852 24.5 78.6684 31.9656 77.5853 30.8825Z" fill="url(#paint0_linear_3_18)"/>
<path d="M75.5536 30.8825C75.7083 29.1805 59.5852 17.5 58.0852 25.5C56.5852 33.5 75.3988 32.5845 75.5536 30.8825Z" fill="url(#paint1_linear_3_18)"/>
<path d="M65.4963 7.36406C70.2928 8.13775 74.0836 12.0059 74.161 12.7795C74.2383 13.5531 63.7943 15.1004 61.4734 12.47C59.1525 9.83969 60.6997 6.59038 65.4963 7.36406Z" fill="url(#paint2_linear_3_18)"/>
<path d="M80.3501 2.10335C83.4446 -1.30055 89.9431 2.10334 86.075 5.97152C82.2068 9.8397 75.9662 12.9343 75.5535 12.47C75.1409 12.0058 77.2555 5.50724 80.3501 2.10335Z" fill="url(#paint3_linear_3_18)"/>
<path d="M75.085 12.5C76.9417 21.6289 76.7913 29.3353 76.7913 38M77.5853 30.8825C76.5022 29.7994 87.0852 12.5 92.0852 18.5C97.0852 24.5 78.6684 31.9656 77.5853 30.8825ZM75.5536 30.8825C75.7083 29.1805 59.5852 17.5 58.0852 25.5C56.5852 33.5 75.3988 32.5845 75.5536 30.8825ZM74.161 12.7795C74.0836 12.0059 70.2928 8.13775 65.4963 7.36406C60.6997 6.59038 59.1525 9.83969 61.4734 12.47C63.7943 15.1004 74.2383 13.5531 74.161 12.7795ZM86.075 5.97152C89.9431 2.10334 83.4446 -1.30055 80.3501 2.10335C77.2555 5.50724 75.1409 12.0058 75.5535 12.47C75.9662 12.9343 82.2068 9.8397 86.075 5.97152Z" stroke="black" stroke-width="0.5"/>
<path d="M98.3157 5.5C98.3157 5.5 103.211 2.97878 110.792 2.97878C114.761 2.97878 116.998 5.83933 117.071 6.2863C117.143 6.73326 115.266 9.41503 110.792 9.41503C103.497 9.41503 98.3157 6.5 98.3157 6.5C98.3157 6.5 96.3157 11.5 95.5645 10.6665C94.8104 9.82988 95.288 8.90155 95.5645 8.16779C95.9711 7.08843 97.3157 6 97.3157 6C97.3157 6 95.8209 5.07271 95.3157 4C94.9017 3.12086 94.6557 1.45911 95.5645 1.45911C96.3157 1.4591 98.3157 5.5 98.3157 5.5Z" fill="url(#paint4_linear_3_18)"/>
<path d="M110.792 2.97878C103.211 2.97878 98.3157 5.5 98.3157 5.5C98.3157 5.5 96.3157 1.4591 95.5645 1.45911C94.6557 1.45911 94.9017 3.12086 95.3157 4C95.8209 5.07271 97.3157 6 97.3157 6C97.3157 6 95.9711 7.08843 95.5645 8.16779C95.288 8.90155 94.8104 9.82988 95.5645 10.6665C96.3157 11.5 98.3157 6.5 98.3157 6.5C98.3157 6.5 103.497 9.41503 110.792 9.41503M110.792 2.97878C114.761 2.97878 116.998 5.83933 117.071 6.2863C117.143 6.73326 115.266 9.41503 110.792 9.41503M110.792 2.97878V9.41503M112.816 5.49999C112.316 5.89675 112.325 6.50887 112.816 6.99999C113.316 7.49999 114.316 7.0726 114.316 6.2863C114.316 5.49999 113.316 5.10323 112.816 5.49999Z" stroke="black" stroke-width="0.5"/>
<path d="M1.00006 9.99994L10.4386 13.2849C10.4386 13.2849 18.3434 13.3663 27.5679 13.5291L28.267 10.7038L33.7437 13.6477C35.7912 13.6905 37.833 13.7372 39.803 13.7876C48.6215 14.0133 56.0001 14.315 56.0001 14.6927C56.0001 15.1259 51.3301 19.922 46.678 22.2011C44.2359 23.3975 41.7731 24.0873 39.803 24.4842C37.3961 24.9691 35.7246 25.0167 35.7246 25.0167L28.267 30.9999V25.0167C28.267 25.0167 23.8839 25.0167 17.4301 22.2011C10.9764 19.3854 10.4386 13.2849 10.4386 13.2849L1.46616 20.4413L1.00006 9.99994Z" fill="url(#paint5_linear_3_18)"/>
<path d="M10.4386 13.2849L1.00006 9.99994L1.46616 20.4413L10.4386 13.2849ZM10.4386 13.2849C10.4386 13.2849 10.9764 19.3854 17.4301 22.2011C23.8839 25.0167 28.267 25.0167 28.267 25.0167V30.9999L35.7246 25.0167C35.7246 25.0167 37.3961 24.9691 39.803 24.4842M10.4386 13.2849C10.4386 13.2849 18.3434 13.3663 27.5679 13.5291M27.5679 13.5291L28.267 10.7038L33.7437 13.6477M27.5679 13.5291C29.5863 13.5647 31.6679 13.6043 33.7437 13.6477M33.7437 13.6477C35.7912 13.6905 37.833 13.7372 39.803 13.7876M39.803 13.7876C48.6215 14.0133 56.0001 14.315 56.0001 14.6927C56.0001 15.1259 51.3301 19.922 46.678 22.2011C44.2359 23.3975 41.7731 24.0873 39.803 24.4842M39.803 13.7876V24.4842M44.5806 15.6312C44.5806 15.6312 43.4153 17.5083 44.5806 18.5642C45.7458 19.6201 47.3772 19.7374 48.4259 18.5642C49.4746 17.391 48.4259 15.6312 48.4259 15.6312" stroke="black" stroke-width="0.5"/>
<path d="M124 22.5C123 19 123.451 14.4428 123 14.5C122.549 14.5572 121 17.0643 121 20C121 22.9357 122.5 30.5 122.5 30.5C122.5 30.5 119.5 27 119 23.5C118.5 20 117.826 17.3899 117.5 17.5C117.174 17.6101 116.5 25.5 117.5 28C118.5 30.5 121.271 34.5 124.213 34.9372C127.155 35.3745 130.5 34.5 132.5 32.5C134.5 30.5 137 26.5 136.5 26.5C136 26.5 134.523 28.3609 133.5 29C132.66 29.5245 131 30 131 30C131 30 133.5 27.0205 134.5 24C135.5 20.9796 135.5 18 135 18C134.5 18 133 20 132 23C131 26 129 28.7021 129 28.7021C129 28.7021 129.576 23.0571 129.345 20.9796C129.114 18.902 128.451 17.5 128 17.5C127.549 17.5 126.973 19.0203 126.5 21.5C126.026 23.9797 126 30.5 126 30.5C126 30.5 124.549 24.4231 124 22.5Z" fill="url(#paint6_linear_3_18)"/>
<path d="M118 25L119 28M122.5 21.5L122 19.5M128 21V22M123 23L123 25M128 25L127.5 27M134 21L133.5 22.5M133 24L132.5 25M131.5 27L131 28M123.5 27.5V28M124.213 34.9372C127.155 35.3745 130.5 34.5 132.5 32.5C134.5 30.5 137 26.5 136.5 26.5C136 26.5 134.523 28.3609 133.5 29C132.66 29.5245 131 30 131 30C131 30 133.5 27.0205 134.5 24C135.5 20.9796 135.5 18 135 18C134.5 18 133 20 132 23C131 26 129 28.7021 129 28.7021C129 28.7021 129.576 23.0571 129.345 20.9796C129.114 18.902 128.451 17.5 128 17.5C127.549 17.5 126.973 19.0203 126.5 21.5C126.026 23.9797 126 30.5 126 30.5C126 30.5 124.549 24.4231 124 22.5C123 19 123.451 14.4428 123 14.5C122.549 14.5572 121 17.0643 121 20C121 22.9357 122.5 30.5 122.5 30.5C122.5 30.5 119.5 27 119 23.5C118.5 20 117.826 17.3899 117.5 17.5C117.174 17.6101 116.5 25.5 117.5 28C118.5 30.5 121.271 34.5 124.213 34.9372Z" stroke="black" stroke-width="0.5"/>
<defs>
<linearGradient id="paint0_linear_3_18" x1="76" y1="1" x2="77.0853" y2="38" gradientUnits="userSpaceOnUse">
<stop stop-color="#A5CE84"/>
<stop offset="1" stop-color="#4CC68D"/>
</linearGradient>
<linearGradient id="paint1_linear_3_18" x1="76" y1="1" x2="77.0853" y2="38" gradientUnits="userSpaceOnUse">
<stop stop-color="#A5CE84"/>
<stop offset="1" stop-color="#4CC68D"/>
</linearGradient>
<linearGradient id="paint2_linear_3_18" x1="76" y1="1" x2="77.0853" y2="38" gradientUnits="userSpaceOnUse">
<stop stop-color="#A5CE84"/>
<stop offset="1" stop-color="#4CC68D"/>
</linearGradient>
<linearGradient id="paint3_linear_3_18" x1="76" y1="1" x2="77.0853" y2="38" gradientUnits="userSpaceOnUse">
<stop stop-color="#A5CE84"/>
<stop offset="1" stop-color="#4CC68D"/>
</linearGradient>
<linearGradient id="paint4_linear_3_18" x1="110.287" y1="6.3757" x2="116.998" y2="6.3757" gradientUnits="userSpaceOnUse">
<stop stop-color="#FCA600"/>
<stop offset="0.494504" stop-color="#FFDF37"/>
</linearGradient>
<linearGradient id="paint5_linear_3_18" x1="25.5" y1="16.5" x2="40" y2="16.0013" gradientUnits="userSpaceOnUse">
<stop stop-color="#FF6B00"/>
<stop offset="1" stop-color="#FFC100"/>
</linearGradient>
<linearGradient id="paint6_linear_3_18" x1="126.769" y1="14.4994" x2="126.769" y2="35.0474" gradientUnits="userSpaceOnUse">
<stop stop-color="#FFA7BC"/>
<stop offset="1" stop-color="#A67CFF"/>
</linearGradient>
</defs>
</svg>
